<svg width="36" height="36" viewBox="0 0 36 36" fill="none" xmlns="http://www.w3.org/2000/svg">
<path fill-rule="evenodd" clip-rule="evenodd" d="M7.28115 12.5C5.74516 12.5 4.5 13.7452 4.5 15.2811V24.5C4.5 27.3284 4.5 28.7426 5.37868 29.6213C6.25736 30.5 7.67157 30.5 10.5 30.5H25.5C28.3284 30.5 29.7426 30.5 30.6213 29.6213C31.5 28.7426 31.5 27.3284 31.5 24.5V15.2812C31.5 13.7452 30.2548 12.5 28.7188 12.5C27.6654 12.5 26.7024 11.9048 26.2313 10.9626L25 8.5C24.5661 7.63211 24.3491 7.19817 23.9891 6.91915C23.8775 6.83272 23.7572 6.75834 23.63 6.69724C23.2194 6.5 22.7343 6.5 21.7639 6.5H14.2361C13.2657 6.5 12.7806 6.5 12.37 6.69724C12.2428 6.75834 12.1225 6.83272 12.0109 6.91915C11.6509 7.19817 11.4339 7.63211 11 8.49999L11 8.5L9.76869 10.9626C9.29759 11.9048 8.33458 12.5 7.28115 12.5ZM22 20C22 22.2091 20.2091 24 18 24C15.7909 24 14 22.2091 14 20C14 17.7909 15.7909 16 18 16C20.2091 16 22 17.7909 22 20ZM24 20C24 23.3137 21.3137 26 18 26C14.6863 26 12 23.3137 12 20C12 16.6863 14.6863 14 18 14C21.3137 14 24 16.6863 24 20Z" fill="white"/>
</svg>
