<svg width="16" height="16" viewBox="0 0 16 16" fill="none" xmlns="http://www.w3.org/2000/svg">
<path fill-rule="evenodd" clip-rule="evenodd" d="M9.2929 8.29432L15.5028 2.23408C15.8884 1.85778 15.8884 1.24734 15.5028 0.871031C15.1168 0.494324 14.4933 0.494324 14.1073 0.871031L7.89619 6.93087L1.68632 0.871031C1.30031 0.494324 0.675206 0.494324 0.289198 0.871031C-0.0963992 1.24734 -0.0963992 1.85778 0.289198 2.23408L6.50072 8.29432L0.289198 14.3546C-0.0963992 14.7309 -0.0963992 15.3413 0.289198 15.7176C0.482202 15.9056 0.734465 15.9999 0.986728 15.9999C1.2394 15.9999 1.49331 15.9056 1.68632 15.7176L7.89619 9.65778L14.1073 15.7176C14.3003 15.9056 14.5526 15.9999 14.8052 15.9999C15.0575 15.9999 15.3098 15.9056 15.5028 15.7176C15.8884 15.3413 15.8884 14.7309 15.5028 14.3546L9.2929 8.29432Z" fill="#231F20"/>
</svg>
