<svg width="18" height="19" viewBox="0 0 18 19" fill="none" xmlns="http://www.w3.org/2000/svg">
<path fill-rule="evenodd" clip-rule="evenodd" d="M11.5 9.66931V12.0006C11.5 13.3813 10.3807 14.5006 9 14.5006C7.61929 14.5006 6.5 13.3813 6.5 12.0006V9.66931C5.5939 10.1935 4.86755 10.9938 4.43606 11.9552C4.27282 12.3189 4.19121 12.5008 4.13328 12.5818C3.95652 12.8292 3.81502 12.9208 3.51699 12.9807C3.41931 13.0004 3.27954 13.0004 3 13.0004C1.34315 13.0004 0 14.3435 0 16.0004C0 17.6573 1.34315 19.0004 3 19.0004H9H15C16.6569 19.0004 18 17.6573 18 16.0004C18 14.3435 16.6569 13.0004 15 13.0004C14.7205 13.0004 14.5807 13.0004 14.483 12.9807C14.185 12.9208 14.0435 12.8292 13.8667 12.5818C13.8088 12.5008 13.7272 12.3189 13.5639 11.9552C13.1325 10.9938 12.4061 10.1935 11.5 9.66931Z" fill="#8560F9"/>
<path d="M9 2L8.29289 1.29289L9 0.585786L9.70711 1.29289L9 2ZM10 12C10 12.5523 9.55229 13 9 13C8.44772 13 8 12.5523 8 12L10 12ZM4.29289 5.29289L8.29289 1.29289L9.70711 2.70711L5.70711 6.70711L4.29289 5.29289ZM9.70711 1.29289L13.7071 5.29289L12.2929 6.70711L8.29289 2.70711L9.70711 1.29289ZM10 2L10 12L8 12L8 2L10 2Z" fill="#8560F9"/>
</svg>
