<svg width="24" height="27" viewBox="0 0 24 27" fill="none" xmlns="http://www.w3.org/2000/svg">
<path fill-rule="evenodd" clip-rule="evenodd" d="M0.470505 8.39995C0 9.36856 0 10.4705 0 12.6744V19.5573C0 22.618 0 24.1483 1.00421 25.0992C1.99351 26.0359 3.57682 26.0498 6.71429 26.05V17.9342C6.71429 16.4347 7.98168 15.311 9.42858 15.311H14.5714C16.0183 15.311 17.2857 16.4347 17.2857 17.9342V26.05C20.4232 26.0498 22.0065 26.0359 22.9958 25.0992C24 24.1483 24 22.618 24 19.5573V12.6744C24 10.4705 24 9.36856 23.5295 8.39995C23.059 7.43133 22.1754 6.7142 20.4081 5.27993L18.6939 3.88864C15.4996 1.29621 13.9025 0 12 0C10.0975 0 8.5004 1.29621 5.30615 3.88864L3.59186 5.27993C1.82463 6.7142 0.94101 7.43133 0.470505 8.39995ZM15.2857 26.05V17.9342C15.2857 17.6408 15.0181 17.311 14.5714 17.311H9.42858C8.98193 17.311 8.71429 17.6408 8.71429 17.9342V26.05H15.2857Z" fill="#8E8E93"/>
</svg>
