<svg width="26" height="26" viewBox="0 0 26 26" fill="none" xmlns="http://www.w3.org/2000/svg">
<path fill-rule="evenodd" clip-rule="evenodd" d="M3.3382 3.33819C2.16663 4.50976 2.16663 6.39538 2.16663 10.1666V15.8333C2.16663 19.6045 2.16663 21.4901 3.3382 22.6617C4.50977 23.8333 6.39539 23.8333 10.1666 23.8333H15.8333C19.6045 23.8333 21.4901 23.8333 22.6617 22.6617C23.8333 21.4901 23.8333 19.6045 23.8333 15.8333V10.1666C23.8333 7.2505 23.8333 5.46183 23.2916 4.25894V18.4166C22.2512 18.4166 21.2533 18.0033 20.5176 17.2676L19.7033 16.4533C18.8098 15.5598 18.3631 15.1131 17.837 14.9762C17.5067 14.8902 17.1599 14.8902 16.8296 14.9762C16.3035 15.1131 15.8568 15.5598 14.9633 16.4533L14.8407 16.5758C14.1259 17.2907 13.7685 17.6481 13.3787 17.6642C13.2237 17.6707 13.0693 17.6409 12.9277 17.5774C12.5718 17.4176 12.3727 16.953 11.9745 16.0238L11.9166 15.8888C11.0131 13.7806 10.5613 12.7265 9.71387 12.441C9.5434 12.3836 9.36598 12.3494 9.18638 12.3394C8.29347 12.2898 7.48254 13.1007 5.86067 14.7226L3.79163 16.7916V2.96582C3.62891 3.0745 3.47844 3.19795 3.3382 3.33819Z" fill="#8E8E93"/>
<path d="M10.1666 3.16663H15.8333C17.7472 3.16663 19.082 3.16875 20.0891 3.30416C21.0675 3.43569 21.5856 3.67629 21.9546 4.04531C22.3236 4.41432 22.5642 4.93242 22.6958 5.91079C22.8312 6.91792 22.8333 8.25274 22.8333 10.1666V15.8333C22.8333 17.7472 22.8312 19.082 22.6958 20.0891C22.5642 21.0675 22.3236 21.5856 21.9546 21.9546C21.5856 22.3236 21.0675 22.5642 20.0891 22.6958C19.082 22.8312 17.7472 22.8333 15.8333 22.8333H10.1666C8.25274 22.8333 6.91792 22.8312 5.91079 22.6958C4.93242 22.5642 4.41432 22.3236 4.04531 21.9546C3.67629 21.5856 3.43569 21.0675 3.30416 20.0891C3.16875 19.082 3.16663 17.7472 3.16663 15.8333V10.1666C3.16663 8.25274 3.16875 6.91792 3.30416 5.91079C3.43569 4.93242 3.67629 4.41432 4.04531 4.04531C4.41432 3.67629 4.93242 3.43569 5.91079 3.30416C6.91792 3.16875 8.25274 3.16663 10.1666 3.16663Z" stroke="#8E8E93" stroke-width="2"/>
<ellipse cx="16.25" cy="9.75004" rx="2.16667" ry="2.16667" fill="#8E8E93"/>
</svg>
