<svg width="270" height="200" viewBox="0 0 270 200" fill="none" xmlns="http://www.w3.org/2000/svg">
<path d="M51.9417 200C80.6284 200 103.883 198.657 103.883 197C103.883 195.343 80.6284 194 51.9417 194C23.2551 194 0 195.343 0 197C0 198.657 23.2551 200 51.9417 200Z" fill="#E6E6E6"/>
<path d="M202.81 121.275L194.197 122.539L193.759 122.603L182.296 124.285L129.973 131.967C127.736 130.215 125.624 128.414 123.663 126.571L183.541 122.565L193.897 121.871L194.332 121.842L202.81 121.275Z" fill="#E6E6E6"/>
<path d="M164.817 73.517L119.325 80.1959C120.645 78.9247 122.023 77.6211 123.46 76.285L164.817 73.517Z" fill="#E6E6E6"/>
<path d="M270 115.582C269.141 117.185 268.218 118.755 267.229 120.291L227.704 114.489L205.958 111.295L227.35 112.728L270 115.582Z" fill="#E6E6E6"/>
<path d="M251.434 137.8C236.886 149.594 217.446 156.796 196.093 156.796C178.627 156.796 158.552 150.024 142.015 140.18C143.323 136.343 145.145 133.233 147.679 131.658C147.742 131.617 147.807 131.577 147.872 131.541C148.954 130.912 150.148 130.57 151.365 130.541C166.268 130.066 164.588 149.074 183.27 122.938C194.888 106.683 208.049 101.09 217.046 102.899C217.211 102.932 217.375 102.967 217.539 103.005C222.753 104.231 226.483 108.009 227.56 113.671C230.498 129.115 221.892 141.47 237.635 137.669C242.19 136.596 246.895 136.641 251.434 137.8Z" fill="#6C63FF"/>
<path d="M207.3 156.165C199.978 151.545 195.421 145.238 193.753 137.418C192.514 131.612 192.87 125.079 194.81 118C196.248 112.78 198.405 107.85 201.2 103.391C216.027 79.6343 217.365 64.1543 215.877 55.3515C214.245 45.6995 208.943 41.6909 208.89 41.6516L209.119 41.2532C209.174 41.2934 214.615 45.3952 216.286 55.243C217.249 60.9204 216.796 67.394 214.939 74.4841C212.627 83.308 208.12 93.126 201.542 103.665C198.773 108.084 196.636 112.969 195.211 118.14C192.029 129.751 191.579 145.701 207.504 155.75L207.3 156.165Z" fill="#3F3D56"/>
<path d="M194.348 111.225C188.576 107.583 188.737 101.811 189.888 97.6107C190.398 95.7579 191.164 94.0079 192.156 92.425C197.35 84.1023 197.819 78.6957 197.299 75.6257C196.733 72.292 194.918 70.9234 194.9 70.9099L195.128 70.5115C195.209 70.5708 197.112 72.0057 197.711 75.5362C198.491 80.1333 196.737 85.9077 192.499 92.6993C191.532 94.2413 190.786 95.9463 190.289 97.7513C189.183 101.784 189.026 107.324 194.552 110.81L194.348 111.225Z" fill="#3F3D56"/>
<path d="M220.316 60.3792L220.112 59.9641C225.638 56.477 225.481 50.9377 224.376 46.905C223.878 45.0999 223.132 43.3949 222.166 41.8529C217.927 35.0614 216.173 29.2869 216.953 24.6898C217.553 21.1593 219.455 19.7244 219.536 19.6651L219.765 20.0633C219.747 20.077 217.922 21.4636 217.363 24.7981C216.847 27.8664 217.322 33.2683 222.509 41.5786C223.501 43.1615 224.266 44.9115 224.776 46.7642C225.928 50.9649 226.088 56.7369 220.316 60.3792Z" fill="#3F3D56"/>
<path d="M232.64 36.7373C231.728 38.3209 230.297 39.4294 228.663 39.819C227.029 40.2087 225.325 39.8475 223.926 38.8149C222.527 37.7824 221.547 36.1631 221.203 34.3132C220.859 32.4633 221.178 30.5344 222.09 28.9509L222.092 28.9478C223.992 25.6507 233.559 22.0968 233.559 22.0968C233.559 22.0968 234.54 33.4402 232.64 36.7373Z" fill="#6C63FF"/>
<path d="M230.331 14.6405C229.419 16.2241 227.988 17.3326 226.354 17.7223C224.72 18.1119 223.016 17.7507 221.617 16.7182C220.218 15.6856 219.238 14.0663 218.894 12.2164C218.55 10.3665 218.869 8.43766 219.781 6.85408L219.783 6.85099C221.683 3.55393 231.25 3.05176e-05 231.25 3.05176e-05C231.25 3.05176e-05 232.231 11.3435 230.331 14.6405Z" fill="#6C63FF"/>
<path d="M230.032 81.5288C229.629 81.4219 220.123 78.92 216.953 80.6283C215.619 81.3474 214.541 82.5589 213.896 84.0637C213.251 85.5684 213.078 87.2768 213.405 88.9079C213.732 90.5389 214.539 91.9955 215.694 93.0381C216.85 94.0807 218.284 94.6471 219.762 94.6443C220.235 94.6447 220.706 94.5858 221.168 94.4685C221.645 94.3478 222.108 94.1669 222.549 93.9292C225.719 92.2184 229.992 82.2868 230.173 81.8638L230.288 81.5977L230.032 81.5288ZM222.369 93.4991C221.647 93.8882 220.865 94.1126 220.067 94.1595C219.268 94.2063 218.47 94.0748 217.716 93.7723C216.963 93.4698 216.27 93.0023 215.676 92.3965C215.082 91.7907 214.6 91.0585 214.256 90.2416C213.912 89.4247 213.714 88.5392 213.673 87.6356C213.631 86.7321 213.747 85.8281 214.015 84.9753C214.282 84.1226 214.695 83.3378 215.23 82.6657C215.765 81.9936 216.412 81.4475 217.134 81.0584C217.873 80.6592 219.002 80.5095 220.291 80.5095C223.817 80.5095 228.532 81.6381 229.678 81.9256C228.962 83.5508 225.127 92.0117 222.369 93.4991V93.4991Z" fill="#3F3D56"/>
<path d="M201.424 41.1634C199.803 41.1663 198.24 40.4815 197.043 39.2439C194.448 36.566 192.908 25.6564 192.844 25.1933L192.803 24.9005L193.065 24.9192C193.478 24.9491 203.217 25.6807 205.811 28.3585C206.782 29.3593 207.462 30.669 207.763 32.1156C208.063 33.5621 207.97 35.0777 207.495 36.4632C207.021 37.8487 206.187 39.0391 205.103 39.878C204.019 40.7169 202.737 41.165 201.424 41.1634H201.424ZM193.302 25.4151C193.57 27.2041 195.068 36.5633 197.326 38.8929C198.519 40.1233 200.095 40.7671 201.707 40.6826C203.319 40.598 204.836 39.7921 205.923 38.4421C207.011 37.092 207.58 35.3083 207.506 33.4833C207.432 31.6582 206.721 29.9411 205.528 28.7096C203.271 26.3802 194.9 25.5532 193.302 25.4151Z" fill="#3F3D56"/>
<path d="M192.656 58.2341C193.267 58.8648 193.762 59.6255 194.113 60.4729C194.465 61.3203 194.665 62.2377 194.703 63.1728C194.741 64.1079 194.616 65.0423 194.336 65.9227C194.055 66.8031 193.623 67.6122 193.066 68.3039C192.509 68.9956 191.837 69.5563 191.088 69.954C190.34 70.3517 189.529 70.5785 188.703 70.6217C187.877 70.6648 187.052 70.5233 186.274 70.2053C185.496 69.8874 184.781 69.3991 184.17 68.7684C181.6 66.1159 180.037 54.8564 180.037 54.8564C180.037 54.8564 190.086 55.5817 192.656 58.2341Z" fill="#6C63FF"/>
<path d="M211.955 58.4959C211.781 57.5893 211.339 56.7771 210.702 56.1935C210.066 55.6098 209.272 55.2897 208.452 55.2859C208.194 55.287 207.936 55.3188 207.684 55.3809C205.807 55.8419 202.472 60.4679 202.331 60.6628L202.166 60.8932L202.401 61.0263C202.585 61.1309 206.603 63.3833 208.706 63.3833C208.874 63.3856 209.041 63.3673 209.206 63.3287C210.136 63.1 210.948 62.4626 211.464 61.5564C211.98 60.6502 212.156 59.5494 211.955 58.4959H211.955ZM211.112 61.2995C210.887 61.6975 210.595 62.0409 210.253 62.3098C209.91 62.5786 209.523 62.7675 209.115 62.8653C207.608 63.236 203.817 61.2663 202.827 60.7317C203.532 59.7813 206.265 56.2149 207.774 55.8442C208.387 55.694 209.026 55.7529 209.61 56.0138C210.194 56.2746 210.696 56.7255 211.053 57.3095C211.411 57.8935 211.607 58.5843 211.617 59.2945C211.628 60.0047 211.452 60.7025 211.112 61.2995V61.2995Z" fill="#3F3D56"/>
<path d="M49.074 117.267L60.0445 104.849C60.4017 104.444 60.8458 104.152 61.3331 104.002C61.8204 103.851 62.334 103.847 62.8232 103.989C63.3124 104.132 63.7602 104.417 64.1226 104.815C64.485 105.213 64.7493 105.712 64.8895 106.261V106.261C65.0337 106.826 65.0414 107.425 64.9118 107.994C64.7823 108.563 64.5202 109.083 64.1528 109.499L57.1489 117.427L66.9238 126.247L66.9189 126.255C66.9678 126.252 67.016 126.247 67.0655 126.247C67.6534 126.247 68.2281 126.444 68.7171 126.813C69.2061 127.182 69.5876 127.707 69.8132 128.322C70.0389 128.936 70.0987 129.612 69.9851 130.265C69.8714 130.918 69.5895 131.518 69.1748 131.99C68.7601 132.461 68.2312 132.783 67.655 132.915C67.0788 133.047 66.481 132.982 65.9371 132.73C65.3933 132.477 64.9277 132.048 64.5991 131.496C64.2706 130.944 64.0939 130.295 64.0912 129.629L49.074 117.267Z" fill="#A0616A"/>
<path d="M81.4722 193.966L84.7264 192.591L81.5892 177.728L76.7863 179.757L81.4722 193.966Z" fill="#A0616A"/>
<path d="M92.1306 193.359L81.9031 197.681L80.4279 193.208L86.8438 190.497C87.8547 190.069 88.9741 190.114 89.9558 190.621C90.9375 191.128 91.701 192.056 92.0784 193.2L92.1306 193.359Z" fill="#2F2E41"/>
<path d="M52.196 192.784L55.6696 192.784L57.3222 177.618L52.1954 177.618L52.196 192.784Z" fill="#A0616A"/>
<path d="M62.3689 196.434L51.4519 196.435L51.4517 191.661L58.3001 191.66C59.3792 191.66 60.4141 192.145 61.1771 193.009C61.9401 193.873 62.3688 195.044 62.3689 196.265L62.3689 196.434Z" fill="#2F2E41"/>
<path d="M60.9739 121.757C60.9739 121.757 69.4739 120.153 72.3072 124.002L84.3488 187.022L77.5488 187.985C77.5488 187.985 75.2822 155.272 63.9489 146.612C63.9489 146.612 55.7323 175.477 57.149 188.626L51.199 187.985C51.199 187.985 49.3574 132.661 60.9739 121.757Z" fill="#2F2E41"/>
<path d="M78.6354 144.504L79.6105 143.055L79.4506 142.917L80.108 141.941C80.2618 141.712 80.3743 141.452 80.4391 141.174C80.504 140.897 80.5199 140.607 80.4859 140.323C80.452 140.038 80.3689 139.764 80.2413 139.516C80.1137 139.267 79.9442 139.05 79.7424 138.876L79.7424 138.876L77.3772 136.836C77.1755 136.662 76.9454 136.534 76.7001 136.461C76.4549 136.388 76.1992 136.37 75.9478 136.408C75.6964 136.446 75.4542 136.541 75.2349 136.685C75.0156 136.829 74.8236 137.021 74.6699 137.25L74.6698 137.25L69.0889 145.54C68.9351 145.768 68.8226 146.028 68.7578 146.306C68.6929 146.584 68.677 146.873 68.711 147.158C68.7449 147.442 68.8281 147.716 68.9556 147.965C69.0832 148.213 69.2527 148.43 69.4545 148.604L69.4545 148.604L71.8197 150.644C72.2272 150.996 72.7413 151.15 73.2491 151.072C73.7568 150.995 74.2165 150.692 74.5271 150.231L74.5271 150.231L77.1347 146.357L77.2947 146.495L78.2698 145.047L78.1098 144.909L78.4755 144.366L78.6354 144.504Z" fill="#E6E6E6"/>
<path d="M76.7314 141.71C77.2868 141.71 77.7369 141.2 77.7369 140.572C77.7369 139.943 77.2868 139.434 76.7314 139.434C76.1761 139.434 75.726 139.943 75.726 140.572C75.726 141.2 76.1761 141.71 76.7314 141.71Z" fill="white"/>
<path d="M63.0316 96.7644C66.7388 96.7644 69.7441 93.3625 69.7441 89.1662C69.7441 84.9698 66.7388 81.568 63.0316 81.568C59.3244 81.568 56.3191 84.9698 56.3191 89.1662C56.3191 93.3625 59.3244 96.7644 63.0316 96.7644Z" fill="#A0616A"/>
<path d="M56.4407 103.476C56.4407 103.476 62.674 95.1373 67.7739 101.872C71.0554 106.206 72.7909 111.769 72.6412 117.474L72.4489 124.804L60.6906 122.719L56.4407 103.476Z" fill="#CCCCCC"/>
<path d="M65.349 101.335C64.9059 101.341 64.4695 101.457 64.07 101.674C63.6704 101.891 63.3175 102.204 63.0356 102.591C62.7538 102.978 62.5498 103.43 62.4379 103.915C62.3261 104.401 62.3089 104.908 62.3878 105.401L68.8209 145.702L68.7851 145.758C68.5285 146.153 68.3532 146.609 68.2719 147.091C68.1906 147.574 68.2054 148.071 68.3152 148.546C68.425 149.021 68.627 149.462 68.9066 149.837C69.1862 150.213 69.5362 150.513 69.9312 150.716C70.5737 151.037 71.2961 151.088 71.9692 150.862C72.6422 150.635 73.2222 150.145 73.6053 149.479C73.9857 148.807 74.1371 148.002 74.0314 147.213C73.9256 146.424 73.5699 145.706 73.0305 145.192L72.9886 145.152L68.415 104.353C68.3219 103.519 67.9632 102.752 67.4062 102.196C66.8492 101.641 66.1322 101.334 65.3897 101.335C65.3762 101.335 65.3625 101.335 65.349 101.335Z" fill="#A0616A"/>
<path d="M64.1197 90.4807L67.0037 86.6348C67.7469 85.6437 68.5243 84.5642 68.6294 83.2696C68.7446 81.8505 67.9821 80.4711 66.9396 79.6721C65.8971 78.8732 64.6169 78.5725 63.3617 78.4622C61.0337 78.2576 58.584 78.6931 56.6702 80.2074C54.7565 81.7218 53.5044 84.4557 53.971 87.0455C54.3384 89.0847 55.6923 91.0382 55.1661 93.0323C54.5903 95.2142 52.2291 95.8836 50.3012 96.5343C47.0652 97.6264 43.9753 99.7764 42.2794 103.082C40.5836 106.387 40.591 110.945 42.8516 113.784C44.3154 115.622 46.5232 116.552 48.7063 116.692C50.8893 116.832 53.0621 116.25 55.1325 115.454C57.0392 114.721 58.9253 113.778 60.4264 112.259C61.9275 110.739 63.0089 108.565 62.9621 106.286C62.9175 104.115 61.8898 102.136 61.4676 100.017C61.1346 98.2428 61.222 96.4003 61.7209 94.6764C62.2198 92.9526 63.1126 91.4087 64.3086 90.2013" fill="#2F2E41"/>
<path d="M59.537 77.9227L61.3537 77.5192C61.5039 77.4858 61.6584 77.4863 61.8084 77.5205C61.9584 77.5547 62.1009 77.6221 62.2279 77.7187C62.3549 77.8153 62.4639 77.9393 62.5486 78.0835C62.6333 78.2278 62.692 78.3895 62.7215 78.5595L65.2336 88.1011L61.1301 89.0126L58.618 79.4709C58.5585 79.1277 58.6219 78.7717 58.7942 78.4814C58.9666 78.191 59.2338 77.9901 59.537 77.9227Z" fill="#6C63FF"/>
<path d="M63.5342 93.5152C65.3591 93.5152 66.8384 91.8407 66.8384 89.7751C66.8384 87.7095 65.3591 86.035 63.5342 86.035C61.7094 86.035 60.2301 87.7095 60.2301 89.7751C60.2301 91.8407 61.7094 93.5152 63.5342 93.5152Z" fill="white"/>
<path d="M63.5344 91.8529C64.5482 91.8529 65.37 90.9226 65.37 89.7751C65.37 88.6275 64.5482 87.6972 63.5344 87.6972C62.5206 87.6972 61.6987 88.6275 61.6987 89.7751C61.6987 90.9226 62.5206 91.8529 63.5344 91.8529Z" fill="#6C63FF"/>
</svg>
