<svg width="250" height="200" viewBox="0 0 250 200" fill="none" xmlns="http://www.w3.org/2000/svg">
<path d="M153.648 66.7401C159.61 66.7401 164.443 60.9214 164.443 53.7437C164.443 46.566 159.61 40.7473 153.648 40.7473C147.687 40.7473 142.854 46.566 142.854 53.7437C142.854 60.9214 147.687 66.7401 153.648 66.7401Z" fill="#F2F2F2"/>
<path d="M89.4785 40.7473C94.4467 40.7473 98.4743 35.8984 98.4743 29.917C98.4743 23.9356 94.4467 19.0867 89.4785 19.0867C84.5102 19.0867 80.4827 23.9356 80.4827 29.917C80.4827 35.8984 84.5102 40.7473 89.4785 40.7473Z" fill="#F2F2F2"/>
<path d="M60.0922 143.274C65.0605 143.274 69.088 138.425 69.088 132.444C69.088 126.463 65.0605 121.614 60.0922 121.614C55.124 121.614 51.0964 126.463 51.0964 132.444C51.0964 138.425 55.124 143.274 60.0922 143.274Z" fill="#F2F2F2"/>
<path d="M50.9489 149.051C53.5546 152.769 56.3733 179.576 59.3809 182.818L200.489 183.179C203.496 179.937 206.315 153.13 208.921 149.412L50.9489 149.051H50.9489Z" fill="#E6E6E6"/>
<path d="M94.9352 117.562V154.587H116.48V117.562C116.481 117.015 116.185 116.532 115.752 116.37C115.652 116.331 115.548 116.311 115.443 116.313H95.9758C95.4022 116.311 94.9364 116.87 94.9353 117.56V117.562H94.9352ZM103.343 130.284C103.355 128.754 104.394 127.526 105.664 127.54C106.918 127.554 107.932 128.774 107.943 130.284V134.58C107.937 136.109 106.903 137.343 105.632 137.335C104.371 137.328 103.349 136.099 103.343 134.58V130.284Z" fill="#3F3D56"/>
<path d="M61.0421 61.7783V129.381C61.0433 131.175 62.2509 132.629 63.7409 132.63H146.952C148.442 132.629 149.649 131.175 149.651 129.381V61.7783C149.647 59.9862 148.44 58.5351 146.952 58.5328H63.7409C62.2523 58.5351 61.0457 59.9862 61.0421 61.7783Z" fill="#3F3D56"/>
<path d="M62.9942 62.6194V128.547C62.9956 129.506 63.6405 130.282 64.4365 130.284H146.259C147.055 130.282 147.7 129.506 147.702 128.547V62.6194C147.701 61.6598 147.056 60.8814 146.259 60.8793H64.4365C63.6395 60.8814 62.9943 61.6598 62.9942 62.6194Z" fill="#6C63FF"/>
<path d="M79.6784 158.515C79.8471 158.769 80.1035 158.917 80.3741 158.915H129.053C129.548 158.915 129.949 158.431 129.948 157.836C129.948 157.762 129.941 157.688 129.929 157.616L129.173 153.294C129.11 152.936 128.9 152.642 128.616 152.511C128.514 152.463 128.406 152.439 128.298 152.439H81.1267C81.018 152.439 80.9101 152.463 80.8089 152.511C80.5247 152.642 80.3148 152.936 80.2511 153.294L79.4955 157.616C79.441 157.933 79.5082 158.263 79.6784 158.515H79.6784Z" fill="#3F3D56"/>
<path d="M67.0673 69.9612H143.628C143.797 69.9568 143.93 69.7891 143.926 69.5866C143.923 69.3904 143.791 69.2323 143.628 69.2281H67.0673C66.8991 69.2325 66.7658 69.4001 66.7694 69.6026C66.773 69.7988 66.9043 69.9569 67.0673 69.9612Z" fill="#3F3D56"/>
<path d="M238.671 141.587C238.665 141.569 238.662 141.555 238.656 141.54C238.541 141.165 238.405 140.798 238.251 140.443C237.379 138.468 238.302 135.436 237.319 132.085C235.73 126.656 233.793 123.454 230.953 120.584C230.869 120.497 230.785 120.414 230.698 120.327L230.695 120.324C228.8 118.45 226.515 116.699 223.678 114.519C223.088 114.064 221.046 115.378 221.094 113.125C221.147 110.623 221.204 108.031 220.185 106.414L220.119 106.309L220.014 106.277C216.518 105.444 212.953 105.113 209.393 105.291H209.39C207.878 105.359 206.377 105.624 204.913 106.082C204.805 106.118 204.697 106.154 204.592 106.197C204.511 106.223 204.43 106.255 204.349 106.288L204.283 106.316L204.232 106.374C203.246 107.562 203.018 109.692 202.91 111.912V111.916C202.889 112.32 202.871 112.724 202.856 113.129C202.772 115.288 198.445 117.031 196.796 118.01C193.698 119.851 194.166 124.141 194.13 124.141C194.13 124.141 188.922 137.013 188.859 150.049C188.856 150.775 188.852 151.504 188.847 152.237C188.811 158.309 188.715 164.486 188.337 170.114C188.172 172.533 187.959 174.847 187.674 177.01C186.289 187.54 180.013 178.797 177.011 185.804C177.11 186.493 177.276 187.165 177.506 187.807C177.851 188.053 178.205 188.291 178.555 188.529C180.112 189.573 181.697 190.546 183.311 191.45C183.401 191.5 183.491 191.551 183.581 191.598C186.542 193.247 189.594 194.649 192.715 195.793C193.323 196.017 193.932 196.23 194.547 196.432C199.984 198.239 205.583 199.249 211.222 199.439C211.245 199.436 211.268 199.435 211.291 199.436C217.96 199.214 224.585 198.064 231.034 196.01C231.124 195.981 231.214 195.952 231.304 195.923C231.727 195.786 232.146 195.649 232.566 195.504C236.278 194.233 239.914 192.662 243.451 190.804C243.455 190.962 243.468 191.12 243.49 191.277C243.493 191.328 243.499 191.378 243.508 191.428C243.514 191.371 243.52 191.313 243.523 191.255C243.541 191.085 243.556 190.912 243.571 190.739C245.406 169.194 241.595 150.901 238.671 141.587V141.587Z" fill="#CCCCCC"/>
<path d="M212.126 103.42C221.743 103.42 229.54 94.0342 229.54 82.456C229.54 70.8778 221.743 61.4918 212.126 61.4918C202.509 61.4918 194.713 70.8778 194.713 82.456C194.713 94.0342 202.509 103.42 212.126 103.42Z" fill="#FFB6B6"/>
<path d="M213.416 103.798C216.07 103.227 218.68 102.384 221.215 101.278C223.705 100.035 228.676 93.5586 229.795 90.1006C230.626 87.5314 230.816 83.7791 230.829 81.0839C230.885 73.8663 228.397 66.9587 223.981 62.0758C223.127 61.0522 222.058 60.3256 220.889 59.973C220.787 59.9506 220.682 59.9339 220.578 59.9232C218.937 59.7947 217.364 59.0785 216.063 57.8664C215.809 57.6192 215.54 57.3943 215.259 57.1936C213.858 56.2533 212.292 55.7255 210.689 55.6534C208.086 55.4364 204.632 57.0678 200.426 60.5044C198.313 62.231 195.723 62.393 193.701 62.3414C193.472 62.3418 193.259 62.489 193.144 62.728C192.47 63.854 191.466 64.6311 190.336 64.9031C189.648 65.1023 189.108 66.4284 188.473 68.1414C188.329 68.5302 188.161 68.984 188.032 69.2662L187.934 68.805L187.626 69.4173C186.042 72.5673 186.879 76.6669 189.495 78.574C190.199 79.0865 190.988 79.4042 191.806 79.5039C192.539 79.5637 193.276 79.5332 194.004 79.4129C194.448 79.3578 194.907 79.3009 195.354 79.2898C198.291 79.3237 200.997 81.2126 202.48 84.2643C203.097 85.512 204.437 85.9218 205.473 85.1795C205.636 85.0629 205.786 84.9213 205.918 84.7583C206.694 83.6864 207.856 83.1395 209.03 83.2942C209.553 83.4991 210.001 83.9141 210.299 84.4694C210.652 85.0834 211.148 85.5569 211.726 85.8296C213.659 86.508 214.562 91.3102 214.582 95.4851C214.602 99.5093 213.854 102.599 212.764 102.999C211.924 103.307 211.838 103.403 211.805 103.6L211.776 103.776L211.897 103.907C212.404 104.002 212.922 103.965 213.416 103.798H213.416Z" fill="#2F2E41"/>
<path d="M151.786 168.612C155.12 168.612 157.823 167.574 157.823 166.293C157.823 165.012 155.12 163.973 151.786 163.973C148.452 163.973 145.749 165.012 145.749 166.293C145.749 167.574 148.452 168.612 151.786 168.612Z" fill="#3F3D56"/>
<path d="M151.786 167.066C155.12 167.066 157.823 166.027 157.823 164.746C157.823 163.465 155.12 162.427 151.786 162.427C148.452 162.427 145.749 163.465 145.749 164.746C145.749 166.027 148.452 167.066 151.786 167.066Z" fill="#3F3D56"/>
<path d="M150.725 166.301L151.624 166.285L151.376 146.061C151.303 139.346 154.2 133.09 158.983 129.635L176.153 117.279L175.692 116.35L158.522 128.706C153.463 132.36 150.399 138.976 150.477 146.077L150.725 166.301Z" fill="#3F3D56"/>
<path d="M175.707 126.396H175.707C174.502 126.396 173.524 125.219 173.524 123.767V107.376C173.524 105.924 174.502 104.747 175.707 104.747H175.707C176.913 104.747 177.891 105.924 177.891 107.376V123.767C177.891 125.219 176.913 126.396 175.707 126.396Z" fill="#6C63FF"/>
<path d="M147.152 138.828C147.909 142.159 150.766 144.122 153.533 143.211C153.828 143.114 154.116 142.986 154.392 142.828L167.341 158.669L169.344 147.374L156.741 134.063C155.334 131.031 152.152 129.947 149.633 131.641C147.526 133.058 146.501 136.03 147.152 138.828H147.152Z" fill="#FFB6B6"/>
<path d="M214.79 122.287L214.708 122.232L205.266 118.323C202.841 117.319 200.175 117.617 197.945 119.141C197.434 119.49 196.952 119.9 196.509 120.364L196.506 120.365C195.026 121.904 194.007 123.984 193.604 126.287L188.644 154.633L178.674 148.164L174.61 146.995L170.912 142.527L161.676 137.999L161.163 138.736L156.516 145.424L156.151 145.949L166.384 163.772L170.971 164.373L172.255 167.125L172.346 167.175L176.106 169.216L192.143 177.914L199.91 170.759L201.125 169.636C211.172 158.429 215.868 149.414 217.829 142.548C218.867 138.921 219.14 135.899 219.038 133.462C218.718 125.932 214.949 122.431 214.79 122.287H214.79Z" fill="#CCCCCC"/>
<path d="M223.666 129.195H219.168C206.168 129.195 195.629 141.883 195.629 157.534V157.534C191.433 163.781 191.69 171.626 195.629 180.791L182.736 174.32C180.9 173.404 178.795 174.453 178.035 176.663C177.276 178.867 178.14 181.394 179.967 182.317L195.629 190.178V191.641C195.629 196.232 198.72 199.953 202.533 199.953H240.301C244.114 199.953 247.205 196.232 247.205 191.641C250.005 179.274 251.757 167.28 247.205 157.534C247.205 141.883 236.666 129.195 223.666 129.195Z" fill="#3F3D56"/>
<path d="M115.866 105.368C116.529 105.368 117.066 104.722 117.066 103.924C117.066 103.127 116.529 102.48 115.866 102.48C115.204 102.48 114.667 103.127 114.667 103.924C114.667 104.722 115.204 105.368 115.866 105.368Z" fill="#F2F2F2"/>
<path d="M120.064 105.368C120.727 105.368 121.264 104.722 121.264 103.924C121.264 103.127 120.727 102.48 120.064 102.48C119.402 102.48 118.865 103.127 118.865 103.924C118.865 104.722 119.402 105.368 120.064 105.368Z" fill="#F2F2F2"/>
<path d="M124.262 105.368C124.925 105.368 125.462 104.722 125.462 103.924C125.462 103.127 124.925 102.48 124.262 102.48C123.6 102.48 123.063 103.127 123.063 103.924C123.063 104.722 123.6 105.368 124.262 105.368Z" fill="#F2F2F2"/>
<path d="M85.6583 88.7745L94.6113 88.9351C94.8597 88.9248 95.0541 88.6739 95.0455 88.3748C95.0373 88.0903 94.8476 87.8619 94.6113 87.8521L85.6583 87.6914C85.4099 87.7018 85.2155 87.9526 85.2241 88.2517C85.2323 88.5362 85.422 88.7646 85.6583 88.7745Z" fill="white"/>
<path d="M96.4448 100.109C97.5043 101.093 99.2073 100.232 99.5029 98.711C99.8475 96.939 98.5619 95.2711 97.103 95.3095C95.4804 95.3523 94.3335 96.9954 94.1578 98.8445C94.0203 100.55 94.5978 102.225 95.6978 103.312C96.8678 104.545 98.4706 104.995 99.973 104.514C100.527 104.318 100.291 103.272 99.7339 103.47C97.7591 104.083 95.7332 102.717 95.1358 100.369C94.8535 99.0919 95.1202 97.4967 96.109 96.7658C96.9979 96.1089 98.2563 96.3474 98.5952 97.6635C98.7963 98.3567 98.4926 99.115 97.9169 99.3571C97.5731 99.5017 97.1923 99.433 96.8988 99.1735C96.6841 99.0246 96.4099 99.1112 96.2835 99.3678C96.1643 99.627 96.2353 99.9532 96.4448 100.109V100.109Z" fill="white"/>
<path d="M105.623 95.2212C104.72 96.4386 103.911 97.7528 103.207 99.1474L102.156 95.8022C101.953 95.1565 101.083 95.4364 101.288 96.0901C101.735 97.5119 102.182 98.9338 102.629 100.356C102.114 101.502 101.669 102.691 101.298 103.915C101.099 104.571 101.968 104.853 102.165 104.203C102.424 103.354 102.721 102.522 103.055 101.712C103.464 103.014 103.873 104.317 104.283 105.619C104.486 106.265 105.355 105.985 105.15 105.332C104.638 103.702 104.126 102.072 103.614 100.442C104.36 98.8468 105.247 97.3532 106.259 95.9871C106.644 95.4689 106.01 94.7004 105.623 95.2212Z" fill="white"/>
<path d="M89.6488 88.2453L90.2778 104.479C90.3047 105.173 91.2044 105.177 91.1773 104.479L90.5484 88.2453C90.5215 87.5514 89.6217 87.5474 89.6488 88.2453V88.2453V88.2453Z" fill="white"/>
<path d="M111.838 96.704H109.572C109.566 96.1558 109.56 95.6079 109.551 95.0606C109.54 94.3646 108.64 94.3623 108.652 95.0606C108.661 95.6084 108.67 96.1562 108.679 96.704H106.738C106.49 96.7144 106.295 96.9652 106.304 97.2643C106.312 97.5488 106.502 97.7772 106.738 97.787H108.697C108.701 98.0172 108.705 98.2475 108.709 98.4777C108.696 99.5432 108.734 100.609 108.823 101.669C109.015 103.371 109.973 105.306 111.61 105.139C112.183 105.08 112.188 103.997 111.61 104.056C110.133 104.206 109.709 102.116 109.653 100.747C109.613 99.7624 109.596 98.7748 109.584 97.787H111.838C112.086 97.7766 112.281 97.5257 112.272 97.2266C112.264 96.9422 112.074 96.7139 111.838 96.704Z" fill="#F2F2F2"/>
<path d="M23.5904 147.145C23.2989 147.146 23.0082 147.179 22.7216 147.243L17.9534 110.902L22.7303 75.916C23.386 71.114 20.6842 66.5812 16.6956 65.7917C13.0961 65.0792 9.61032 67.6666 8.52233 71.8584V71.8585C6.73159 78.7573 5.84544 85.9501 5.89583 93.1777L6.06244 117.037L18.7742 153.68C19.0927 156.884 21.5078 159.17 24.1685 158.786C26.8292 158.403 28.7279 155.495 28.4094 152.292C28.1174 149.354 26.0476 147.144 23.5904 147.145V147.145Z" fill="#FFB8B8"/>
<path d="M14.8577 63.4691C8.50438 63.4819 3.35666 69.6796 3.34613 77.3286L5.68504 105.776L5.89494 108.325L6.00289 108.332L14.216 108.823H14.219L18.2042 109.061L18.8879 109.101L19.6705 105.776L26.3694 77.3286C26.3625 69.6777 21.2126 63.4775 14.8577 63.4691Z" fill="#E6E6E6"/>
<path d="M15.2115 200L11.4333 186.043C11.4333 186.043 4.50654 177.563 13.3914 155.051C13.5863 154.552 13.7902 154.05 14.0031 153.538C14.3749 152.639 14.7727 151.717 15.1965 150.772C15.8382 149.401 16.4889 147.982 17.2236 146.516L17.8953 146.661L18.531 146.794L20.705 147.256H20.708L52.1902 153.935C52.1902 153.935 51.6115 157.047 51.2996 160.386C51.0508 163.126 50.9698 165.899 51.5575 167.072C52.8289 169.693 51.1107 176.776 51.1107 176.776C51.1107 176.776 51.2067 177.462 51.3686 178.675V178.679C51.5275 179.859 51.7494 181.534 52.0013 183.563C52.0133 183.7 52.0283 183.837 52.0463 183.975C52.4451 187.26 52.9219 191.408 53.3477 195.866C53.4796 197.22 53.6055 198.603 53.7255 200L15.2115 200H15.2115Z" fill="#2F2E41"/>
<path d="M6.23809 70.8277C7.02866 68.2028 8.87568 66.2437 11.1382 65.6303C12.7885 65.0654 14.5061 64.8394 16.2188 64.9617C21.2324 65.1995 19.9683 51.6766 24.9328 52.5522C24.9328 52.5522 29.6055 50.5445 33.2616 54.2234C36.583 57.5655 38.8726 66.6552 39.725 66.1381C39.9061 66.0303 40.3412 66.0417 40.9499 66.139C48.0636 67.2757 53.1827 74.9585 52.76 83.583L52.3986 90.9557C52.3986 90.9557 54.9527 95.5849 51.2464 103.757L46.5769 128.881C46.5769 128.881 58.2598 156.739 52.8739 162.455C47.488 168.17 26.3711 159.258 26.3711 159.258C26.3711 159.258 14.5292 154.851 12.0317 152.941C6.7562 148.906 13.4988 139.706 17.6675 140.139C17.8918 139.069 17.5965 137.938 16.9041 137.215C15.7519 136.329 17.0429 134.324 17.14 134.14C17.029 134.273 16.1544 135.376 15.4882 133.053C14.8219 130.73 16.8763 127.806 16.8763 127.806L11.0739 112.765L6.50698 100.883L5.95169 99.5122L6.9043 92.1189L6.81516 91.8969C4.78529 86.8018 4.33605 81.0007 5.54861 75.5417C5.98849 73.5342 6.3051 71.7049 6.23808 70.8277L6.23809 70.8277Z" fill="#E6E6E6"/>
<path d="M53.7256 200H51.7225C52.2772 198.567 52.826 197.177 53.3477 195.866C53.4797 197.22 53.6056 198.603 53.7256 200Z" fill="#2F2E41"/>
<path d="M93.0436 115.904C92.8661 116.182 92.7098 116.479 92.5765 116.791L65.79 99.0811L45.7378 73.1145C42.9854 69.5504 38.3543 69.3474 35.394 72.6611C32.7225 75.6513 32.2877 80.5533 34.3744 84.1552L34.3745 84.1552C37.8089 90.0835 41.9902 95.3308 46.7678 99.7077L62.5395 114.157L94.3873 124.49C96.6861 126.148 99.666 125.249 101.043 122.481C102.42 119.713 101.673 116.126 99.3744 114.468C97.2665 112.948 94.5474 113.564 93.0436 115.904H93.0436Z" fill="#FFB8B8"/>
<path d="M56.7857 108.884L64.7374 97.7171L65.1803 97.0926L48.8927 70.5184C48.1887 69.8585 47.4219 69.3019 46.6085 68.8605L46.6063 68.858C40.8195 65.6913 33.996 68.7722 31.3658 75.7392C29.1578 81.5878 30.5784 88.4966 34.7978 92.4296L39.5514 96.0184L56.7145 108.982L56.7857 108.884Z" fill="#E6E6E6"/>
<path d="M42.514 40.4005C38.454 49.3385 29.1444 52.6217 21.7204 47.7338C14.2964 42.8459 11.5693 31.6378 15.6293 22.6998C19.6893 13.7618 28.9989 10.4786 36.4229 15.3665C39.5413 17.4197 41.9699 20.7143 43.2925 24.6862C43.3626 24.8973 43.4257 25.1084 43.4888 25.328C44.9703 30.2886 44.6154 35.7757 42.514 40.4005V40.4005Z" fill="#FFB6B6"/>
<path d="M44.7162 25.328C44.0569 23.1072 44.3445 24.264 43.6782 22.0517C44.1131 24.0107 43.4257 25.1084 43.4888 25.328H25.2462V12.5606C30.5907 10.0105 35.8159 7.84042 38.972 12.5606C44.8287 12.5609 49.5765 18.2769 49.5767 25.328L44.7162 25.328V25.328Z" fill="#2F2E41"/>
<path d="M38.2496 60.8182C38.2356 60.5818 38.2146 60.3368 38.1865 60.1004C37.9414 58.3659 37.544 56.6676 37.0012 55.034C36.4751 53.2523 35.9421 51.4622 35.4091 49.6805C36.0955 52.9146 35.8861 56.3302 34.8129 59.408C31.7339 56.5202 33.6767 49.9169 29.6508 49.9169C19.9719 49.9169 10.0125 40.4681 10.0125 28.8069C10.0125 17.1541 14.1645 8.43994 23.8434 8.43994C33.5294 8.43994 41.3848 13.7765 41.5741 25.4293C29.6508 28.8069 40.501 59.636 38.2496 60.8182V60.8182Z" fill="#2F2E41"/>
<path d="M11.2219 27.0209C17.4196 27.0209 22.4438 20.972 22.4438 13.5104C22.4438 6.04882 17.4196 0 11.2219 0C5.02422 0 0 6.04882 0 13.5104C0 20.972 5.02422 27.0209 11.2219 27.0209Z" fill="#2F2E41"/>
<path d="M70.3838 66.759C71.1321 66.759 71.7386 66.0125 71.7386 65.0916C71.7386 64.1707 71.1321 63.4242 70.3838 63.4242C69.6356 63.4242 69.0291 64.1707 69.0291 65.0916C69.0291 66.0125 69.6356 66.759 70.3838 66.759Z" fill="#3F3D56"/>
<path d="M75.064 66.759C75.8122 66.759 76.4188 66.0125 76.4188 65.0916C76.4188 64.1707 75.8122 63.4242 75.064 63.4242C74.3158 63.4242 73.7092 64.1707 73.7092 65.0916C73.7092 66.0125 74.3158 66.759 75.064 66.759Z" fill="#3F3D56"/>
<path d="M79.7442 66.759C80.4924 66.759 81.099 66.0125 81.099 65.0916C81.099 64.1707 80.4924 63.4242 79.7442 63.4242C78.996 63.4242 78.3894 64.1707 78.3894 65.0916C78.3894 66.0125 78.996 66.759 79.7442 66.759Z" fill="#3F3D56"/>
<path d="M85.0808 66.4095C85.0392 66.4095 84.9977 66.3901 84.9663 66.3515L84.0522 65.2265C83.9912 65.1515 83.9912 65.0317 84.0522 64.9567L84.9663 63.8318C85.0283 63.7557 85.1299 63.7545 85.1929 63.8288C85.2561 63.9033 85.2572 64.0254 85.1954 64.1015L84.3908 65.0916L85.1954 66.0818C85.2572 66.1579 85.2561 66.28 85.1929 66.3545C85.1617 66.3912 85.1213 66.4095 85.0808 66.4095V66.4095Z" fill="#3F3D56"/>
<path d="M86.6169 66.4095C86.5765 66.4095 86.5361 66.3912 86.5049 66.3545C86.4416 66.28 86.4405 66.158 86.5024 66.0818L87.3069 65.0916L86.5024 64.1015C86.4405 64.0254 86.4416 63.9033 86.5049 63.8288C86.5681 63.7542 86.6696 63.7556 86.7315 63.8318L87.6455 64.9567C87.7064 65.0317 87.7064 65.1515 87.6455 65.2265L86.7315 66.3515C86.7001 66.3901 86.6586 66.4095 86.6169 66.4095L86.6169 66.4095Z" fill="#3F3D56"/>
<path d="M137.429 63.6172H135.729C135.535 63.6172 135.378 63.8063 135.378 64.0396V66.088C135.378 66.3214 135.535 66.5104 135.729 66.5104H137.429C137.623 66.5104 137.781 66.3214 137.781 66.088V64.0396C137.781 63.8063 137.623 63.6172 137.429 63.6172Z" fill="#3F3D56"/>
<path d="M133.264 63.6172H131.564C131.37 63.6172 131.213 63.8063 131.213 64.0396V66.088C131.213 66.3214 131.37 66.5104 131.564 66.5104H133.264C133.458 66.5104 133.616 66.3214 133.616 66.088V64.0396C133.616 63.8063 133.458 63.6172 133.264 63.6172Z" fill="#3F3D56"/>
<path d="M141.354 63.7137H139.654C139.46 63.7137 139.303 63.9027 139.303 64.1361V66.1844C139.303 66.4178 139.46 66.6068 139.654 66.6068H141.354C141.548 66.6068 141.706 66.4178 141.706 66.1844V64.1361C141.706 63.9027 141.548 63.7137 141.354 63.7137Z" fill="#3F3D56"/>
<path d="M113.113 64.4929H98.1425C97.9054 64.4929 97.7148 64.7244 97.7148 65.0079C97.7148 65.2914 97.9054 65.5229 98.1425 65.5229H113.113C113.349 65.5229 113.541 65.2914 113.541 65.0079C113.541 64.7244 113.349 64.4929 113.113 64.4929Z" fill="#3F3D56"/>
</svg>
