<svg width="250" height="210" viewBox="0 0 250 210" fill="none" xmlns="http://www.w3.org/2000/svg">
<g clip-path="url(#clip0_351_649)">
<path d="M127.976 207.773C126.761 207.773 125.533 207.755 124.328 207.721L124.355 206.932C126.086 206.981 127.851 206.994 129.59 206.973L129.602 207.763C129.061 207.769 128.519 207.773 127.976 207.773ZM134.873 207.59L134.822 206.801C136.554 206.709 138.31 206.579 140.038 206.416L140.13 207.202C138.388 207.366 136.62 207.497 134.873 207.59V207.59ZM119.062 207.467C117.314 207.346 115.548 207.188 113.813 206.996L113.92 206.212C115.642 206.402 117.394 206.559 119.128 206.679L119.062 207.467ZM145.361 206.598L145.23 205.817C146.952 205.581 148.687 205.308 150.385 205.004L150.556 205.778C148.844 206.085 147.096 206.361 145.361 206.598ZM108.594 206.309C106.868 206.045 105.125 205.742 103.415 205.407L103.601 204.635C105.298 204.967 107.027 205.268 108.74 205.53L108.594 206.309ZM155.705 204.744L155.494 203.977C157.184 203.6 158.884 203.184 160.546 202.739L160.795 203.497C159.12 203.945 157.408 204.364 155.705 204.744ZM98.2879 204.291C96.5946 203.885 94.8905 203.438 93.2231 202.963L93.487 202.21C95.1418 202.681 96.8328 203.125 98.5129 203.527L98.2879 204.291ZM165.816 202.039L165.528 201.293C167.168 200.779 168.818 200.223 170.432 199.64L170.757 200.374C169.131 200.961 167.468 201.521 165.816 202.039L165.816 202.039ZM88.2185 201.42C86.5739 200.875 84.9191 200.287 83.3004 199.672L83.6405 198.944C85.2467 199.554 86.8888 200.138 88.5209 200.679L88.2185 201.42ZM175.597 198.51L175.234 197.791C176.809 197.145 178.392 196.456 179.939 195.743L180.338 196.447C178.779 197.165 177.184 197.859 175.597 198.51ZM78.4783 197.722C76.8975 197.043 75.3106 196.32 73.7625 195.574L74.1753 194.878C75.7119 195.618 77.2863 196.335 78.8552 197.009L78.4783 197.722ZM184.97 194.189L184.536 193.503C186.047 192.726 187.555 191.909 189.017 191.075L189.485 191.742C188.012 192.583 186.492 193.406 184.97 194.189ZM69.1624 193.234C67.6588 192.427 66.153 191.577 64.6873 190.706L65.1694 190.047C66.6238 190.911 68.118 191.755 69.6103 192.555L69.1624 193.234ZM193.872 189.11L193.371 188.463C194.793 187.567 196.213 186.628 197.59 185.674L198.124 186.301C196.736 187.262 195.306 188.208 193.872 189.11ZM60.3462 187.998C58.9322 187.072 57.5197 186.102 56.1476 185.114L56.6943 184.496C58.0559 185.477 59.4577 186.439 60.8608 187.358L60.3462 187.998ZM202.229 183.319L201.664 182.715C202.99 181.706 204.309 180.655 205.586 179.59L206.181 180.17C204.894 181.243 203.565 182.302 202.229 183.319ZM52.1 182.06C50.7831 181.02 49.4748 179.939 48.2116 178.845L48.8181 178.275C50.0719 179.361 51.3702 180.434 52.6771 181.466L52.1 182.06ZM209.97 176.862L209.347 176.307C210.569 175.19 211.778 174.035 212.939 172.872L213.59 173.401C212.42 174.572 211.202 175.736 209.97 176.862V176.862ZM44.4903 175.475C43.2821 174.329 42.0888 173.145 40.9437 171.955L41.6054 171.437C42.7418 172.618 43.9259 173.793 45.1251 174.93L44.4903 175.475ZM217.032 169.794L216.355 169.293C217.459 168.081 218.546 166.831 219.587 165.576L220.288 166.049C219.24 167.314 218.144 168.574 217.032 169.794ZM37.579 168.295C36.4939 167.058 35.4256 165.782 34.4034 164.501L35.1144 164.039C36.1288 165.311 37.1891 166.577 38.266 167.805L37.579 168.295ZM223.352 162.173L222.627 161.73C223.604 160.432 224.561 159.097 225.471 157.761L226.218 158.174C225.301 159.521 224.336 160.866 223.352 162.173ZM31.4239 160.582C30.4694 159.262 29.5351 157.904 28.6468 156.545L29.4014 156.144C30.2831 157.493 31.2103 158.84 32.1576 160.15L31.4239 160.582ZM228.878 154.06L228.112 153.678C228.953 152.305 229.77 150.896 230.541 149.488L231.326 149.839C230.549 151.257 229.726 152.677 228.878 154.06ZM26.0778 152.399C25.2608 151.006 24.4686 149.577 23.7232 148.152L24.5154 147.815C25.2552 149.229 26.0413 150.647 26.8521 152.029L26.0778 152.399ZM233.557 145.519L232.754 145.202C233.452 143.765 234.123 142.292 234.747 140.826L235.565 141.109C234.936 142.587 234.26 144.07 233.557 145.519V145.519ZM21.5875 143.815C20.9158 142.361 20.2727 140.874 19.6759 139.394L20.4994 139.124C21.0914 140.593 21.7297 142.068 22.3959 143.511L21.5875 143.815ZM237.345 136.619L236.513 136.371C237.06 134.885 237.576 133.367 238.047 131.858L238.89 132.071C238.416 133.592 237.896 135.123 237.345 136.619L237.345 136.619ZM17.9884 134.888C17.4671 133.383 16.9773 131.845 16.5326 130.316L17.38 130.116C17.8213 131.632 18.3075 133.159 18.8246 134.653L17.9884 134.888ZM240.2 127.464L239.347 127.285C239.739 125.763 240.098 124.208 240.413 122.664L241.275 122.807C240.957 124.363 240.596 125.929 240.2 127.464L240.2 127.464ZM15.3126 125.689C14.9473 124.146 14.6166 122.574 14.33 121.016L15.1941 120.886C15.4788 122.433 15.8069 123.993 16.1694 125.524L15.3126 125.689ZM242.11 118.111L241.241 118.004C241.477 116.457 241.676 114.879 241.833 113.314L242.705 113.385C242.547 114.962 242.347 116.552 242.11 118.111L242.11 118.111ZM13.5861 116.307C13.3795 114.744 13.2099 113.151 13.0818 111.574L13.9557 111.516C14.0825 113.081 14.2511 114.662 14.4562 116.214L13.5861 116.307ZM243.062 108.641L242.187 108.605C242.265 107.04 242.305 105.452 242.305 103.886H243.181C243.181 105.464 243.141 107.064 243.062 108.641L243.062 108.641ZM12.8163 106.823C12.7864 105.854 12.7712 104.866 12.771 103.886C12.771 103.278 12.7768 102.672 12.7883 102.066L13.6644 102.08C13.6528 102.681 13.6471 103.283 13.6471 103.886C13.6473 104.859 13.6625 105.84 13.692 106.801L12.8163 106.823ZM242.298 102.784C242.28 101.218 242.222 99.6304 242.126 98.0655L243 98.0215C243.097 99.5984 243.156 101.198 243.174 102.776L242.298 102.784ZM13.8724 97.3636L12.998 97.3142C13.1073 95.7358 13.2583 94.1415 13.4463 92.5755L14.3173 92.6606C14.1305 94.2148 13.981 95.7969 13.8724 97.3636ZM241.716 93.3603C241.541 91.8029 241.323 90.2271 241.069 88.6764L241.936 88.561C242.192 90.1235 242.411 91.7113 242.588 93.2805L241.716 93.3603ZM14.9993 87.9811L14.1335 87.8603C14.4019 86.2975 14.7138 84.7223 15.0605 83.1779L15.919 83.3346C15.5751 84.8671 15.2656 86.4304 14.9993 87.9811ZM240.185 84.0249C239.851 82.4838 239.474 80.9325 239.064 79.4142L239.916 79.2275C240.328 80.7574 240.708 82.3206 241.045 83.8733L240.185 84.0249ZM17.0745 78.7312L16.2247 78.5392C16.6501 77.0091 17.1213 75.4663 17.6252 73.9534L18.4641 74.1806C17.9642 75.6819 17.4967 77.2129 17.0745 78.7312ZM237.709 74.8549C237.221 73.3507 236.687 71.8375 236.123 70.3571L236.951 70.1002C237.52 71.592 238.058 73.1171 238.55 74.6327L237.709 74.8549ZM20.0903 69.6803L19.2639 69.4183C19.8461 67.9249 20.4747 66.4243 21.1322 64.9583L21.9445 65.2546C21.2919 66.7092 20.668 68.1984 20.0903 69.6803H20.0903ZM234.307 65.9298C233.668 64.476 232.984 63.0169 232.273 61.5929L233.072 61.2685C233.788 62.7035 234.478 64.1737 235.122 65.6386L234.307 65.9298ZM24.0224 60.9122L23.2263 60.5824C23.958 59.1455 24.7367 57.7045 25.541 56.2997L26.3195 56.6619C25.5213 58.0562 24.7485 59.4861 24.0224 60.9122ZM230.019 57.3431C229.235 55.9484 228.405 54.5509 227.55 53.1898L228.313 52.8005C229.174 54.1723 230.01 55.5804 230.8 56.9859L230.019 57.3431ZM28.8308 52.5124L28.0715 52.1182C28.9454 50.7497 29.867 49.3799 30.8109 48.0472L31.5493 48.4723C30.6127 49.795 29.6979 51.1544 28.8308 52.5124H28.8308ZM224.872 49.141C223.947 47.8121 222.977 46.4882 221.991 45.206L222.711 44.7558C223.705 46.0479 224.682 47.3818 225.614 48.7209L224.872 49.141ZM34.4697 44.5496L33.7536 44.0944C34.7636 42.8027 35.8195 41.5153 36.8928 40.2678L37.585 40.7519C36.52 41.9902 35.4718 43.2677 34.4697 44.5496ZM218.913 41.3926C217.857 40.1457 216.758 38.9061 215.644 37.7084L216.316 37.2009C217.438 38.4079 218.546 39.6568 219.609 40.9131L218.913 41.3926ZM40.8885 37.0875L40.2216 36.5752C41.355 35.3748 42.5363 34.1799 43.7325 33.0238L44.3729 33.5627C43.1858 34.7101 42.0135 35.8961 40.8885 37.0875ZM212.193 34.1612C211.016 33.0061 209.796 31.8612 208.565 30.7587L209.183 30.1982C210.423 31.3094 211.652 32.4628 212.838 33.6266L212.193 34.1612ZM48.0306 30.1859L47.418 29.6212C48.6707 28.516 49.9671 27.4234 51.2707 26.3738L51.8542 26.9632C50.5605 28.0047 49.2739 29.089 48.0306 30.1859H48.0306ZM204.77 27.5079C203.48 26.453 202.148 25.4127 200.812 24.4157L201.37 23.807C202.717 24.8115 204.059 25.8597 205.358 26.9227L204.77 27.5079ZM55.8358 23.9007L55.2827 23.2882C56.6376 22.2931 58.0379 21.3118 59.4449 20.3713L59.9668 21.0059C58.5703 21.9394 57.1805 22.9132 55.8358 23.9007ZM196.702 21.4885C195.31 20.5436 193.878 19.6164 192.446 18.7329L192.941 18.081C194.384 18.9711 195.827 19.9052 197.229 20.8574L196.702 21.4885ZM64.2383 18.2848L63.7494 17.6294C65.1996 16.7496 66.6925 15.888 68.1869 15.0681L68.6421 15.7431C67.1592 16.5567 65.6776 17.4119 64.2383 18.2848ZM188.055 16.1553C186.574 15.3291 185.054 14.5236 183.536 13.761L183.962 13.0709C185.492 13.8393 187.024 14.6511 188.516 15.4834L188.055 16.1553ZM73.169 13.3862L72.7485 12.693C74.2827 11.936 75.8559 11.2016 77.4241 10.5097L77.8091 11.2195C76.2528 11.9059 74.6917 12.6348 73.169 13.3862L73.169 13.3862ZM178.899 11.5559C177.34 10.8555 175.743 10.1789 174.153 9.54495L174.507 8.82245C176.11 9.46125 177.719 10.1431 179.29 10.8488L178.899 11.5559ZM82.5527 9.24736L82.2045 8.52254C83.8078 7.89589 85.4479 7.2949 87.079 6.73613L87.39 7.47484C85.7712 8.02915 84.1438 8.62552 82.5527 9.24734L82.5527 9.24736ZM169.308 7.73272C167.685 7.16548 166.025 6.62427 164.373 6.12436L164.652 5.37524C166.316 5.87921 167.99 6.42446 169.624 6.99633L169.308 7.73272ZM92.3247 5.90119L92.0518 5.15052C93.7167 4.65832 95.4154 4.19483 97.1004 3.77341L97.3346 4.53449C95.6624 4.95282 93.9768 5.41261 92.3247 5.90118L92.3247 5.90119ZM159.373 4.72659C157.702 4.29706 155.998 3.89704 154.308 3.53771L154.509 2.76892C156.212 3.13094 157.929 3.53405 159.613 3.96667L159.373 4.72659ZM102.409 3.37743L102.214 2.60729C103.921 2.25567 105.66 1.93532 107.382 1.65527L107.537 2.43255C105.828 2.71066 104.103 3.02851 102.409 3.37742V3.37743ZM149.187 2.561C147.481 2.27227 145.743 2.01537 144.022 1.79741L144.143 1.01512C145.878 1.2348 147.629 1.49364 149.348 1.78449L149.187 2.561ZM112.709 1.70137L112.593 0.918295C114.327 0.709605 116.091 0.534092 117.835 0.39716L117.911 1.18408C116.18 1.32024 114.43 1.49421 112.709 1.70136L112.709 1.70137ZM138.823 1.24811C137.097 1.10153 135.341 0.988501 133.602 0.912701L133.645 0.123473C135.397 0.200028 137.166 0.313847 138.905 0.461574L138.823 1.24811ZM123.135 0.88107L123.098 0.091842C124.708 0.0312756 126.349 0.000416805 127.976 3.05176e-05L128.372 0.000593154L128.37 0.790609L127.976 0.790025C126.361 0.790411 124.733 0.821076 123.135 0.88106V0.88107Z" fill="#E6E6E6"/>
<path d="M128.251 207.233V164.034C128.252 163.429 128.519 162.849 128.993 162.421C129.468 161.993 130.111 161.752 130.783 161.752H136.53C137.202 161.752 137.845 161.993 138.319 162.421C138.794 162.849 139.061 163.429 139.062 164.034V207.233C139.061 207.839 138.794 208.419 138.319 208.847C137.845 209.275 137.202 209.515 136.53 209.516H130.783C130.111 209.515 129.468 209.275 128.993 208.847C128.519 208.419 128.252 207.839 128.251 207.233Z" fill="#2F2E41"/>
<path d="M116.883 207.233V164.034C116.884 163.429 117.151 162.849 117.625 162.421C118.1 161.993 118.743 161.752 119.414 161.752H125.162C125.833 161.752 126.477 161.993 126.951 162.421C127.426 162.849 127.693 163.429 127.693 164.034V207.233C127.693 207.839 127.426 208.419 126.951 208.847C126.477 209.275 125.833 209.515 125.162 209.516H119.414C118.743 209.515 118.1 209.275 117.625 208.847C117.151 208.419 116.884 207.839 116.883 207.233Z" fill="#2F2E41"/>
<path d="M139.608 149.772H116.336C115.046 149.772 114 150.716 114 151.879V175.585C114 176.749 115.046 177.692 116.336 177.692H139.608C140.899 177.692 141.945 176.749 141.945 175.585V151.879C141.945 150.716 140.899 149.772 139.608 149.772Z" fill="#2F2E41"/>
<path d="M88.8482 81.902C88.8482 81.902 77.1035 86.822 67.1648 90.0849C60.9973 77.5302 52.1122 78 52.1122 78L46.7254 81.3447L47.6968 86.3614L47.4318 94.5635L46.0189 98.8636L48.0465 99.194L49.1918 99.3813L49.3645 99.2405C49.0787 100.262 48.963 101.316 49.0214 102.367L99.975 95.2007C99.975 95.2007 98.2088 87.7949 88.8482 81.902Z" fill="#E6E6E6"/>
<path d="M73.8021 146.475L77.2183 150.644C77.9853 151.579 79.4484 151.777 80.4861 151.086L119.012 125.41C120.05 124.719 120.269 123.399 119.502 122.463L116.086 118.295C115.319 117.359 113.856 117.161 112.818 117.853L74.2924 143.528C73.2546 144.22 73.0351 145.539 73.8021 146.475Z" fill="#6C63FF"/>
<path d="M139.449 116.879L134.371 119.309C133.232 119.854 132.798 121.13 133.403 122.158L155.859 160.316C156.464 161.344 157.879 161.735 159.018 161.19L164.096 158.76C165.236 158.215 165.669 156.939 165.064 155.911L142.608 117.753C142.003 116.725 140.589 116.334 139.449 116.879Z" fill="#6C63FF"/>
<path d="M153.682 133.815L145.39 138.772C144.123 139.378 142.605 139.036 142 138.008L132.842 122.447C132.238 121.42 132.774 120.095 134.042 119.488L139.686 116.787C140.953 116.181 142.47 116.523 143.075 117.551L154.881 130.855C155.486 131.883 154.949 133.208 153.682 133.815Z" fill="#CCCCCC"/>
<path d="M97.1754 129.256L102.565 135.71C102.989 136.118 103.575 136.357 104.195 136.374C104.814 136.392 105.416 136.187 105.868 135.805L120.112 123.749C120.563 123.366 120.828 122.837 120.848 122.279C120.868 121.72 120.64 121.178 120.216 120.77L116.283 116.991C115.858 116.584 115.272 116.345 114.653 116.327C114.033 116.309 113.432 116.514 112.98 116.897L97.2799 126.278C96.8281 126.66 96.5633 127.189 96.5437 127.748C96.524 128.306 96.7513 128.849 97.1754 129.256Z" fill="#CCCCCC"/>
<path d="M141.03 116.258H114.914C113.624 116.258 112.578 117.202 112.578 118.365V168.399C112.578 169.562 113.624 170.506 114.914 170.506H141.03C142.321 170.506 143.367 169.562 143.367 168.399V118.365C143.367 117.202 142.321 116.258 141.03 116.258Z" fill="#CCCCCC"/>
<path d="M127.82 112.993C139.331 112.993 148.662 104.579 148.662 94.1988C148.662 83.8189 139.331 75.4044 127.82 75.4044C116.309 75.4044 106.978 83.8189 106.978 94.1988C106.978 104.579 116.309 112.993 127.82 112.993Z" fill="#6C63FF"/>
<path d="M130.249 100.474C128.961 100.441 127.359 100.401 126.125 99.5881C125.758 99.336 125.456 99.0145 125.24 98.6461C125.025 98.2777 124.902 97.8712 124.879 97.4553C124.857 97.1598 124.911 96.8636 125.036 96.59C125.162 96.3163 125.356 96.0726 125.604 95.8778C126.248 95.3867 127.189 95.2708 128.204 95.5403L127.153 88.6129L127.925 88.5176L129.16 96.6614L128.516 96.3949C127.769 96.0856 126.744 95.9285 126.106 96.4141C125.95 96.5411 125.828 96.6988 125.75 96.8751C125.672 97.0514 125.641 97.2415 125.658 97.4306C125.676 97.7402 125.769 98.0425 125.929 98.3169C126.089 98.5913 126.313 98.8314 126.585 99.0208C127.544 99.6532 128.822 99.7352 130.271 99.7715L130.249 100.474Z" fill="#2F2E41"/>
<path d="M123.337 89.2104H119.142V89.9127H123.337V89.2104Z" fill="#2F2E41"/>
<path d="M136.578 89.2104H132.383V89.9127H136.578V89.2104Z" fill="#2F2E41"/>
<path d="M114.051 79.5119C110.673 79.1645 108.057 76.2459 107.77 73.2845C107.428 69.7616 109.703 66.4155 112.824 64.4386C116.089 62.3712 120.156 61.5078 124.091 61.3177C131.767 60.9733 139.311 63.2155 145.256 67.6085C148.204 69.8168 150.958 72.6298 152.002 76.0276C152.908 78.9784 152.17 82.3213 149.538 84.388C148.887 84.8945 148.127 85.2737 147.305 85.5019C146.484 85.73 145.618 85.8021 144.764 85.7136C142.722 85.5224 140.838 84.5541 139.207 83.4847C136.034 81.4046 133.43 78.5068 129.564 77.4198C126.73 76.6227 123.052 77.3243 121.32 79.6355C120.927 80.1645 120.673 80.7672 120.575 81.3979C120.54 81.5324 120.562 81.6742 120.638 81.7945C120.713 81.9148 120.837 82.0046 120.983 82.0459C121.133 82.0821 121.292 82.0639 121.426 81.995C121.561 81.9261 121.66 81.8122 121.702 81.678C122.157 78.767 126.126 77.6807 128.911 78.3455C132.972 79.3148 135.699 82.5828 139.031 84.6591C140.783 85.7507 142.775 86.6235 144.924 86.7801C146.776 86.9112 148.614 86.402 150.066 85.3558C152.912 83.3288 154.001 79.8426 153.371 76.7038C152.642 73.069 149.929 69.9538 146.953 67.542C140.918 62.7043 133.084 60.0944 125.011 60.2326C120.893 60.3179 116.597 61.0845 113.049 63.047C109.608 64.9507 106.949 68.1355 106.601 71.8375C106.295 75.096 108.234 78.5042 111.562 79.9317C112.347 80.2669 113.188 80.4811 114.051 80.5654C114.797 80.642 114.791 79.5879 114.051 79.5119H114.051Z" fill="#2F2E41"/>
<path d="M49.1537 98.7443L51.6264 98.0275C51.8913 97.5697 51.4065 97.8634 51.6379 97.4183C57.8936 85.3835 52.1121 78 52.1121 78L47.6395 80.777C47.6285 80.7542 47.6195 80.7305 47.6084 80.7075C47.6084 80.7075 46.8136 79.1149 45.5773 80.3094C45.5773 80.3094 49.4628 88.8301 45.1357 99.4211L50.1693 101.492L52.1121 99.4211L52.1562 99.222L48.6793 98.937L49.1537 98.7443Z" fill="#CCCCCC"/>
<path d="M119.668 143.458C99.7984 139.476 81.2979 147.718 81.2979 147.718L81.2475 147.677L73.88 141.745L45.0917 99.3813L52.1121 99.4211C71.6282 88.9097 99.0919 90.343 99.0919 90.343C110.925 102.447 119.668 143.458 119.668 143.458Z" fill="#3F3D56"/>
<path opacity="0.1" d="M81.2475 147.677L73.88 141.745L45.0917 99.3813L52.1121 99.4211C52.1121 99.4211 80.0934 132.746 81.2475 147.677Z" fill="black"/>
<path d="M84.481 114.622C90.4959 112.959 94.4212 108.815 93.2485 105.367C92.0758 101.92 86.2491 100.473 80.2342 102.137C74.2193 103.801 70.2939 107.944 71.4667 111.392C72.6394 114.84 78.4661 116.286 84.481 114.622Z" fill="#6C63FF"/>
<path d="M22.9809 78.8405C21.3944 84.1289 15.9604 87.4041 15.9604 87.4041C15.9604 87.4041 13.0986 82.1052 14.685 76.8168C16.2715 71.5285 21.7055 68.2532 21.7055 68.2532C21.7055 68.2532 24.5673 73.5522 22.9809 78.8405Z" fill="#CCCCCC"/>
<path d="M8.54842 78.8405C10.1349 84.1289 15.5689 87.4041 15.5689 87.4041C15.5689 87.4041 18.4308 82.1052 16.8443 76.8168C15.2578 71.5285 9.82381 68.2532 9.82381 68.2532C9.82381 68.2532 6.96196 73.5522 8.54842 78.8405Z" fill="#CCCCCC"/>
<path d="M10.8797 77.704C15.233 81.5254 15.7647 87.3998 15.7647 87.3998C15.7647 87.3998 9.23832 87.0785 4.88502 83.2571C0.53172 79.4356 0 73.5612 0 73.5612C0 73.5612 6.52636 73.8826 10.8797 77.704Z" fill="#3F3D56"/>
<path d="M20.6497 77.704C16.2964 81.5254 15.7646 87.3998 15.7646 87.3998C15.7646 87.3998 22.291 87.0785 26.6443 83.2571C30.9976 79.4356 31.5293 73.5612 31.5293 73.5612C31.5293 73.5612 25.003 73.8826 20.6497 77.704Z" fill="#3F3D56"/>
<path d="M241.451 138.54C239.865 143.828 234.431 147.103 234.431 147.103C234.431 147.103 231.569 141.804 233.156 136.516C234.742 131.227 240.176 127.952 240.176 127.952C240.176 127.952 243.038 133.251 241.451 138.54Z" fill="#CCCCCC"/>
<path d="M227.019 138.54C228.606 143.828 234.04 147.103 234.04 147.103C234.04 147.103 236.901 141.804 235.315 136.516C233.729 131.227 228.295 127.952 228.295 127.952C228.295 127.952 225.433 133.251 227.019 138.54Z" fill="#CCCCCC"/>
<path d="M229.35 137.403C233.704 141.224 234.235 147.099 234.235 147.099C234.235 147.099 227.709 146.777 223.356 142.956C219.002 139.135 218.471 133.26 218.471 133.26C218.471 133.26 224.997 133.582 229.35 137.403Z" fill="#3F3D56"/>
<path d="M239.12 137.403C234.767 141.224 234.235 147.099 234.235 147.099C234.235 147.099 240.762 146.777 245.115 142.956C249.468 139.135 250 133.26 250 133.26C250 133.26 243.474 133.582 239.12 137.403Z" fill="#3F3D56"/>
<path d="M173.672 209.298H83.3237V210H173.672V209.298Z" fill="#3F3D56"/>
</g>
<defs>
<clipPath id="clip0_351_649">
<rect width="250" height="210" fill="white"/>
</clipPath>
</defs>
</svg>
