<svg width="15" height="20" viewBox="0 0 15 20" fill="none" xmlns="http://www.w3.org/2000/svg">
<mask id="mask0_352_910" style="mask-type:alpha" maskUnits="userSpaceOnUse" x="0" y="0" width="15" height="20">
<path fill-rule="evenodd" clip-rule="evenodd" d="M0 0H14.8725V19.341H0V0Z" fill="white"/>
</mask>
<g mask="url(#mask0_352_910)">
<path fill-rule="evenodd" clip-rule="evenodd" d="M3.90125 15.9323H5.1225V6.23101H3.90125V15.9323ZM6.85 15.9323H8.07125V6.23101H6.85V15.9323ZM10.1275 15.9323H11.3488V6.23101H10.1275V15.9323ZM0.596252 4.49226C0.596252 4.49226 1.11375 4.98101 1.11375 5.26851V17.8373C1.11375 18.6673 1.84625 19.341 2.75375 19.341H12.1188C13.0275 19.341 13.76 18.6673 13.76 17.8373V5.26851C13.76 4.98101 14.2775 4.49226 14.2775 4.49226V2.96851H0.596252V4.49226Z" fill="#F96060"/>
<path fill-rule="evenodd" clip-rule="evenodd" d="M5.06351 1.71C5.21976 1.3675 5.59101 1.12375 6.01976 1.12375H8.85226C9.28226 1.12375 9.65351 1.3675 9.80976 1.71H5.06351ZM14.8735 1.71H11.0835C10.8935 0.7425 9.96601 0 8.85226 0H6.02476C4.90726 0 3.97976 0.7425 3.79351 1.71H-0.000244141V2.6425H14.8735V1.71Z" fill="#F96060"/>
</g>
</svg>
